<?xml version="1.0" encoding="UTF-8"?>
<!DOCTYPE svg PUBLIC "-//W3C//DTD SVG 1.1//EN" "http://www.w3.org/Graphics/SVG/1.1/DTD/svg11.dtd">
<!-- Creator: CorelDRAW 2019 (64-Bit) -->
<svg xmlns="http://www.w3.org/2000/svg" xml:space="preserve" width="175.2mm" height="200.2mm" version="1.1" style="shape-rendering:geometricPrecision; text-rendering:geometricPrecision; image-rendering:optimizeQuality; fill-rule:evenodd; clip-rule:evenodd"
viewBox="0 0 14603 16687"
 xmlns:xlink="http://www.w3.org/1999/xlink"
 xmlns:xodm="http://www.corel.com/coreldraw/odm/2003">
 <defs>
  <style type="text/css">
   <![CDATA[
    .str1 {stroke:#2B2A29;stroke-width:17;stroke-miterlimit:22.9256}
    .str0 {stroke:#2B2A29;stroke-width:17;stroke-miterlimit:22.9256}
    .fil0 {fill:none}
    .fil1 {fill:#2B2A29;fill-rule:nonzero}
   ]]>
  </style>
 </defs>
 <g id="Layer_x0020_1">
  <metadata id="CorelCorpID_0Corel-Layer"/>
  <rect class="fil0 str0" x="8" y="8" width="568" height="609"/>
  <rect class="fil0 str0" x="8" y="16069" width="568" height="609"/>
  <rect class="fil0 str0" x="14026" y="8" width="568" height="609"/>
  <rect class="fil0 str0" x="14026" y="16069" width="568" height="609"/>
  <path class="fil1" d="M4616 6480l8343 0 0 350 -8352 0 0 -4 -10 8c-22,19 -57,47 -160,116 -250,166 -727,293 -1127,399 -95,25 -185,49 -267,72 -2,28 -4,56 -7,84 -18,224 -40,480 122,670 68,80 183,312 298,574 163,369 328,794 367,927 26,33 37,73 34,111 -4,39 -22,77 -55,104 -33,27 -73,38 -113,35 -39,-4 -77,-22 -104,-55l-1 -1 0 -1c-149,-293 -289,-651 -422,-991 -55,-141 -109,-280 -162,-409l-3 -7 10 -5 -84 -84c-242,-284 -214,-581 -190,-826 10,-104 19,-199 6,-278 -199,-192 -259,-520 -321,-861 -81,-444 -165,-909 -569,-1115 -40,-15 -69,-45 -86,-80 -16,-36 -19,-78 -4,-118 15,-40 45,-70 81,-86 36,-16 78,-19 118,-4l1 0c173,88 302,195 399,315 96,118 160,248 208,383 136,-4 271,-10 407,-17 72,-3 143,-7 216,-10l0 -75 8352 0 0 350 -8352 0 0 -92c-71,3 -143,6 -214,10 -118,6 -235,11 -354,15 30,119 51,240 72,360 54,308 107,608 296,837 17,21 30,44 39,71 8,23 13,49 17,76 63,-17 128,-34 195,-52 391,-104 871,-231 1097,-381 71,-48 112,-78 143,-101 42,-32 67,-51 129,-81l0 -135 8 0zm8327 17l-8318 0 0 129 -5 2c-64,32 -88,50 -131,82 -31,23 -72,54 -143,102 -228,152 -710,280 -1102,384 -73,19 -143,38 -205,55l-9 3 -1 -10c-3,-30 -8,-57 -17,-82 -8,-25 -20,-47 -36,-66 -192,-232 -245,-535 -299,-845 -22,-123 -43,-248 -74,-369l-3 -10 10 0c122,-4 243,-9 364,-15 74,-3 148,-7 223,-10l9 0 0 93 8318 0 0 -317 -8318 0 0 74 -8 0c-74,3 -149,7 -224,10 -137,7 -274,13 -413,17l-6 0 -2 -6c-47,-136 -112,-266 -207,-384 -95,-118 -222,-223 -393,-310 -35,-13 -73,-11 -105,4 -32,15 -59,41 -72,77 -13,36 -11,73 3,105 15,32 41,59 77,72l1 0c411,210 497,679 578,1127 62,339 121,665 318,854l2 2 2 14 6 -6 8 7 8 7 -11 13c-4,-3 -7,-5 -9,-7l0 0c9,77 1,165 -9,262 -23,242 -51,534 186,813l100 100 -17 8c52,128 105,263 159,402 133,339 272,696 421,989 24,29 58,45 92,49 35,3 71,-7 101,-31 29,-24 46,-58 49,-93 3,-35 -7,-71 -31,-101l-1 -1 0 -2c-37,-130 -203,-557 -366,-927 -115,-260 -229,-492 -296,-570 -167,-195 -145,-456 -126,-682 3,-31 5,-61 7,-90l0 -6 6 -2c83,-23 176,-48 273,-74 398,-105 874,-231 1122,-396 102,-68 137,-96 159,-115 9,-7 15,-13 24,-19l13 -9 0 20 8318 0 0 -317z"/>
  <polygon class="fil0 str1" points="3410,8261 3660,8261 3660,8427 3410,8427 "/>
  <polygon class="fil0 str1" points="3827,8261 4077,8261 4077,8427 3827,8427 "/>
  <polygon class="fil0 str1" points="4244,8261 4494,8261 4494,8427 4244,8427 "/>
  <polygon class="fil0 str1" points="4660,8261 4910,8261 4910,8427 4660,8427 "/>
  <polygon class="fil0 str1" points="5077,8261 5327,8261 5327,8427 5077,8427 "/>
  <polygon class="fil0 str1" points="5494,8261 5744,8261 5744,8427 5494,8427 "/>
  <polygon class="fil0 str1" points="5911,8261 6161,8261 6161,8427 5911,8427 "/>
  <polygon class="fil0 str1" points="6327,8261 6577,8261 6577,8427 6327,8427 "/>
  <polygon class="fil0 str1" points="6744,8261 6994,8261 6994,8427 6744,8427 "/>
  <polygon class="fil0 str1" points="7161,8261 7411,8261 7411,8427 7161,8427 "/>
  <polygon class="fil0 str1" points="7577,8261 7828,8261 7828,8427 7577,8427 "/>
  <polygon class="fil0 str1" points="7994,8261 8244,8261 8244,8427 7994,8427 "/>
  <polygon class="fil0 str1" points="8411,8261 8661,8261 8661,8427 8411,8427 "/>
  <polygon class="fil0 str1" points="8828,8261 9078,8261 9078,8427 8828,8427 "/>
  <polygon class="fil0 str1" points="9244,8261 9495,8261 9495,8427 9244,8427 "/>
  <polygon class="fil0 str1" points="9661,8261 9911,8261 9911,8427 9661,8427 "/>
  <polygon class="fil0 str1" points="10078,8261 10328,8261 10328,8427 10078,8427 "/>
  <polygon class="fil0 str1" points="10495,8261 10745,8261 10745,8427 10495,8427 "/>
  <polygon class="fil0 str1" points="10911,8261 11162,8261 11162,8427 10911,8427 "/>
  <polygon class="fil0 str1" points="11328,8261 11578,8261 11578,8427 11328,8427 "/>
 </g>
</svg>
