<?xml version="1.0" encoding="UTF-8"?>
<!DOCTYPE svg PUBLIC "-//W3C//DTD SVG 1.1//EN" "http://www.w3.org/Graphics/SVG/1.1/DTD/svg11.dtd">
<!-- Creator: CorelDRAW X6 -->
<svg xmlns="http://www.w3.org/2000/svg" xml:space="preserve" width="37.7469mm" height="21.7816mm" version="1.1" style="shape-rendering:geometricPrecision; text-rendering:geometricPrecision; image-rendering:optimizeQuality; fill-rule:evenodd; clip-rule:evenodd"
viewBox="0 0 3775 2178"
 xmlns:xlink="http://www.w3.org/1999/xlink">
 <defs>
  <style type="text/css">
   <![CDATA[
    .fil0 {fill:#2A2928}
    .fil1 {fill:#FCFDFE}
   ]]>
  </style>
 </defs>
 <g id="Layer_x0020_1">
  <metadata id="CorelCorpID_0Corel-Layer"/>
  <path class="fil0" d="M786 1535c-12,68 -149,92 -186,105 -86,31 -37,105 68,74 81,-25 155,25 235,50 143,37 143,-38 242,-62 6,6 -62,92 55,62 106,-31 -12,-50 0,-75 44,-111 87,-62 124,-80 0,0 93,-112 105,-130l-18 6 0 -93c-56,-6 -68,44 -149,81 -148,68 -80,-13 -148,-25 -6,0 -279,118 -291,111 -62,-31 217,-80 -105,-62 -68,0 -87,62 -81,62 44,0 93,-43 149,-24l0 0z"/>
  <path class="fil0" d="M2506 1584l0 0c0,0 0,0 0,0zm204 -155l0 0c0,0 -6,0 0,0zm106 -74c-7,-37 -13,-25 18,-25l-18 25zm43 -80l6 6c0,0 -6,0 -6,-6zm-223 123c-25,62 -37,31 -56,99 -12,56 -24,50 -68,62l19 25 -31 -6c-19,37 -56,105 -31,142 6,-18 118,-55 142,-93 37,-55 -6,-130 31,-179 37,0 13,37 13,62 37,6 12,-25 74,-50 18,-12 124,-148 142,-173 44,-56 74,-37 105,-43 13,-19 13,-44 25,-62 13,-31 31,-25 43,-56 -24,-12 -37,13 -61,19 -31,6 -31,-19 -68,6 -25,19 -25,43 -50,68 -6,6 -62,31 -80,43 -25,13 -56,19 -68,44 -13,24 6,43 12,62 25,80 -62,55 -93,30l0 0z"/>
  <path class="fil0" d="M192 1751c12,19 -13,0 -13,0 -6,-12 0,-12 13,0zm-192 -161l0 75 25 -13c-19,37 0,13 -25,25l0 6c12,6 12,0 0,6l0 37c43,13 56,0 80,38 44,0 -24,-13 19,0 31,0 50,-7 87,6 55,6 12,6 62,18l24 -43c-49,-12 -18,19 -43,-31 -43,-6 -99,0 -130,19 -19,-81 56,-19 6,-93l56 -25c-56,-105 93,-136 -12,-217 -25,56 0,19 -38,69 -31,43 7,43 -43,55 62,44 -12,56 -31,62 -6,0 -12,19 -37,6l0 0z"/>
  <path class="fil0" d="M2067 1733l0 6c0,0 0,0 0,0 0,0 -6,-6 0,-6zm55 12l-24 -19 6 -6c25,19 12,-6 18,25zm0 -105c7,-6 31,-6 13,0 0,0 -19,25 -13,0zm-303 124c50,30 56,-7 174,-7 43,0 12,-6 55,-24 81,61 118,0 118,0 12,18 31,61 62,6l-93 -81 49 -12c-18,-56 -55,-6 -80,-12 -43,-7 -74,-81 -186,55 -31,31 -86,19 -99,75l0 0z"/>
  <path class="fil0" d="M3385 2042l0 0c0,0 0,0 0,0zm99 -68l6 0c0,0 -6,0 -6,0zm-31 -31c12,-6 -19,-6 25,0l-25 0zm-19 0c0,0 7,0 7,0l-7 0zm186 -56l6 0c0,0 -6,0 -6,0zm-235 -37l0 6c0,0 0,0 0,-6zm-81 25c19,25 38,25 25,62 -12,18 -37,62 -62,62 37,43 0,43 56,62 31,-7 6,-19 37,-13 31,0 -6,6 43,0 38,-12 62,-18 99,-25 0,-37 -24,-18 0,-55 19,-25 13,-6 25,-31 37,0 112,-6 124,-50 -62,-43 -124,56 -192,31 -130,-37 31,-105 -155,-43z"/>
  <path class="fil0" d="M2079 1293c0,0 6,0 6,6 0,0 0,0 0,0 0,0 -12,7 -6,-6zm-31 -18c0,0 0,6 0,6 0,0 0,0 0,0 0,0 -12,6 0,-6zm-161 0c0,0 0,6 0,0l0 0zm44 -37c-19,6 -25,-7 -44,6 -12,12 -18,31 -43,43 -37,19 -68,-6 -68,74 31,-6 49,-18 80,-24 25,-7 38,0 68,-7 31,-6 137,-49 149,-43l6 50c25,6 25,-7 62,6 19,12 37,31 56,6l-44 -19c31,-24 130,-61 87,-130 -43,0 -31,62 -62,81 -56,-12 -31,-25 -74,-56l-74 31c-37,13 -19,25 -56,43 -50,-24 -12,-49 0,-68 37,-43 37,-18 62,-49 -6,-31 -13,-12 0,-43l-93 55c-25,31 6,-6 -12,44l0 0z"/>
  <path class="fil0" d="M2116 1838l0 0c0,0 0,0 0,0zm365 -31l-6 31 -37 -31 43 0zm-315 -6l0 6c0,0 0,-6 0,-6zm-217 37c6,49 62,68 105,62 19,-44 -31,-31 62,-56 56,-12 56,6 112,25 37,6 99,18 136,0 56,-31 56,12 136,-6 6,-62 -62,-106 -99,-75 -25,25 -99,25 -136,13 -56,-13 -266,6 -316,37z"/>
  <path class="fil0" d="M3100 1856c0,0 0,7 -6,7l6 -7zm56 50c25,0 18,49 31,-19 25,0 43,31 62,0 18,-18 0,-55 -13,-74 -37,-6 -49,-6 -86,6 -37,6 -25,-12 -81,-6 -49,0 -93,68 -62,111 25,38 62,106 99,93 44,-6 31,-62 50,-111z"/>
  <path class="fil0" d="M3533 1658c-6,13 -12,25 -12,31 -6,0 -25,13 -37,13 -6,-31 0,-13 18,-19 13,-6 19,-12 31,-25l0 0zm-62 -18c-6,37 13,43 -6,68 -24,37 0,43 19,74 -25,25 -19,19 -37,25 0,80 74,111 105,62 0,-6 12,-37 12,-37l0 -13c-6,-31 -6,-37 -18,-49 -25,-19 -13,0 -44,-19 7,-12 0,-12 38,-31 24,-6 30,-6 49,-6l19 56c37,0 61,-6 80,-44 12,-24 6,0 6,-37 -25,6 -18,6 -37,19 -12,-56 -18,-19 -74,-50 -31,-18 -81,-31 -112,-18l0 0z"/>
  <path class="fil0" d="M2859 712l0 0c0,0 0,-25 6,0 0,6 12,-19 -6,0zm80 -7c44,-6 25,0 62,-18 37,-13 19,-6 50,12 -37,-55 24,19 18,-68 -62,-12 -136,81 -198,43 6,-43 31,-68 -49,-68 -56,0 -81,7 -44,62 13,19 19,112 130,75 31,-7 13,-13 31,-38l0 0z"/>
  <path class="fil0" d="M241 2079c0,0 -6,6 -6,0l6 0zm-18 -18c0,0 0,6 0,6l0 -6zm0 -19c0,-6 0,0 0,0 0,0 0,0 0,0 0,0 -13,6 0,0zm-74 0c6,43 99,80 123,50 19,-31 6,-56 56,-31 43,18 12,-19 68,18l-68 6 -6 31 55 6c0,-61 50,-24 69,-74 -19,-25 -19,-6 -38,-6 -12,-6 -61,-87 -111,-80 -87,6 -43,49 -62,68 -25,31 -62,-7 -86,12z"/>
  <path class="fil0" d="M2605 1058l0 0zm-31 -18l0 6c0,0 0,0 0,0 0,0 0,-6 0,-6zm-117 99c55,55 74,37 117,24 25,0 56,7 124,-6l-12 -49c-56,-7 -38,-7 -62,-44 -62,-80 -87,31 -167,75l0 0z"/>
  <path class="fil0" d="M3317 1516l0 0c0,0 0,0 0,0zm-93 -56l0 7c0,-7 0,-25 0,-7zm93 62l6 31c12,-12 6,-43 0,-56 -25,-24 -19,31 -56,-12l19 -25c-6,-18 -13,-12 -13,-24 0,-31 -6,31 7,-7 6,-24 6,13 0,-12 -7,-31 -7,-6 -7,-31l-12 -37c-37,6 -19,6 -49,0 -19,31 -7,19 -13,37 -12,31 -12,6 -25,19 -24,24 13,55 19,74 6,31 -25,49 31,49 68,-6 43,19 93,-6l0 0z"/>
  <path class="fil0" d="M1417 1627c19,7 43,13 62,7 43,-7 99,-81 62,-112l-74 -25c-44,50 -75,69 -50,130l0 0z"/>
  <path class="fil0" d="M3639 1040l0 6c0,0 0,-6 0,-6zm-93 142c24,-12 55,-43 80,-43 25,0 56,18 81,6 61,-31 -7,-99 -62,-112 -50,38 6,19 -31,31 -37,19 -13,-12 -31,25 -37,62 -13,0 -25,68l-12 25 0 0z"/>
  <path class="fil0" d="M2840 1702l6 0c0,0 -6,0 -6,0zm0 0l-37 -37c-31,43 -25,68 -18,111 49,-25 18,6 105,-50 55,-37 80,19 93,-43 -7,-6 -19,-6 -38,-12l25 -25c-31,-6 -18,0 -25,12 -99,-6 -12,-31 -68,-18 -31,12 7,12 -37,62z"/>
  <path class="fil0" d="M3218 1627c0,75 0,50 49,106 19,-7 37,-13 56,-19 37,-6 18,0 49,19 25,-25 13,-7 38,-19 -25,-19 -19,0 -25,-25l-105 -86c-13,12 0,12 -19,18 0,0 -37,0 -43,6l0 0z"/>
  <path class="fil0" d="M798 1986c0,0 0,7 0,7 0,0 0,0 0,0 0,0 -12,6 0,-7zm-86 -31c0,0 0,0 0,0 0,0 0,0 0,0 0,0 -13,13 0,0zm24 -12c0,0 31,-6 13,0 0,0 -19,25 -13,0zm-6 -43c6,24 13,24 6,37 -18,18 -80,18 -31,49 56,0 56,7 99,13 38,12 69,12 99,0 -37,-56 -55,0 -99,-31 13,-13 13,-13 19,-25 6,-19 6,-19 12,-43l-43 -25 -62 25z"/>
  <path class="fil0" d="M3471 1497l0 0c0,0 -6,0 0,0zm-61 -49c-19,-12 -50,-6 -56,-6l-19 49c44,25 0,-18 44,13 24,18 12,24 55,18 44,-6 50,-37 93,-43 -43,-37 -6,-19 -25,-56 -18,6 -49,0 -68,-18 -12,18 -12,24 -24,43l0 0z"/>
  <path class="fil0" d="M1572 1869c12,43 -6,37 -6,43 -25,25 -7,12 -25,43 49,0 31,-37 124,-18 18,0 37,0 49,-6 37,-19 56,-44 19,-87 -37,25 -37,12 -106,25l-55 0 0 0z"/>
  <path class="fil0" d="M1603 545c-56,-25 -37,-13 -44,-38 -43,44 -24,7 -62,25 38,68 62,87 93,56 -24,-37 -24,-19 -49,-31l18 -25c44,31 75,56 118,37 49,-24 105,-24 49,-86 -37,31 -43,12 -68,18 -37,6 -12,25 -55,44l0 0z"/>
  <path class="fil0" d="M2376 2098l6 6c0,-6 -6,-6 -6,-6zm81 -6l0 0c0,0 -7,0 0,0zm-149 37c31,24 87,18 112,0 37,-31 80,-44 123,-7 6,-24 6,-6 13,-30 6,-19 6,-25 -13,-44 0,13 13,25 -12,13 -31,-13 18,18 -13,-7 -30,-31 -24,-18 -49,-6 -68,25 -25,19 -56,44l-105 37 0 0z"/>
  <path class="fil0" d="M1182 1974c0,0 31,-19 12,-6 0,0 -18,25 -12,6zm-81 -19c0,0 0,0 0,0 0,0 0,0 0,0 0,0 -12,13 0,0zm-6 7c19,12 0,0 13,0l74 18c-19,31 -12,6 -12,43 24,-18 68,-24 86,-18 13,-31 -6,-12 6,-31 0,0 7,-6 7,-6 18,-13 6,-6 24,-13 50,-6 25,25 68,0 -18,-31 -24,-37 -62,-31l-74 19c-62,12 -18,-25 -68,-12 -6,6 -18,12 -37,18 -25,6 -6,-18 -25,13l0 0z"/>
  <path class="fil0" d="M1405 1776c6,-25 0,-25 6,-43l25 12c-7,43 -7,25 -31,31zm74 -43c-6,-7 -37,-25 -50,-25 0,0 -37,-6 -37,-6 -24,6 -12,12 -49,24 -118,50 12,62 49,68 37,13 81,-24 87,-61z"/>
  <path class="fil0" d="M464 1887l19 56c-19,12 -25,12 -44,6 13,19 31,25 75,19 6,-44 -13,-6 0,-44l74 25c18,0 49,-25 43,-49 -6,-31 -6,-19 -80,-19 -37,-6 -56,-6 -87,6l0 0z"/>
  <path class="fil0" d="M3174 910c-43,0 38,6 -12,-7 -6,-6 12,-6 -12,-6 -25,0 -19,6 -37,25 18,49 49,25 74,19l62 -13c37,-12 37,6 68,-43 -13,-6 -25,-19 -44,-25 -43,-6 -43,12 -55,12 -44,13 -6,-18 -37,0 -31,13 0,7 -7,38l0 0z"/>
  <path class="fil0" d="M2215 959l-43 31c25,25 19,12 19,50 -25,12 -19,6 -38,18 -18,13 0,6 -18,25 -19,12 -31,0 -50,43 44,25 106,-37 136,-55 100,-50 -12,49 118,-56l-25 -6 -18 37c-87,-6 -62,18 -99,-6 18,-25 12,-13 37,-25l-25 -25 31 -25c-31,-31 -12,-43 -37,-43l12 37 0 0z"/>
  <path class="fil0" d="M3527 1015l50 43 31 -31c-31,-37 -13,6 -50,-68 25,-12 19,6 50,-12 -7,-62 0,-75 -19,-118l-31 0c-37,87 6,105 -31,186z"/>
  <path class="fil0" d="M3335 637l0 0c0,0 0,0 0,0zm-117 0c0,-6 0,0 0,0l0 0zm74 -18c-87,25 -87,-25 -74,49 62,0 62,-43 117,19l31 -37c31,24 31,31 62,31 31,0 6,0 19,-25 12,-19 0,12 12,-25 -31,-18 -6,6 -37,0 -31,-12 -12,-12 -50,-25 -61,56 -61,25 -80,13z"/>
  <path class="fil0" d="M377 1578c-37,6 -80,18 -68,68 7,31 13,19 44,25 -6,31 -13,24 12,55l50 -12c-31,-19 -7,-19 -44,-31l0 -49c13,-7 25,-13 37,-19 13,-12 -12,-6 25,-25 -49,-37 -12,-37 -56,-49 -12,31 0,6 0,37l0 0z"/>
  <path class="fil0" d="M817 854c31,-12 37,-37 49,-50l-37 -12c62,-31 50,0 62,6 0,0 25,13 31,13l12 -31c-18,6 -6,6 -31,-19 0,-31 7,6 7,-31l-93 0c-6,-31 12,6 6,-31 -31,19 -31,-6 -43,19 -6,18 12,12 31,31 12,12 0,80 6,105l0 0z"/>
  <path class="fil0" d="M3057 1584l-25 62c31,25 0,12 31,19 37,0 93,-19 118,-44 -13,-18 -13,-62 -81,-43 -25,12 -6,25 -43,6l0 0z"/>
  <path class="fil0" d="M3385 1361l0 7c0,0 0,-7 0,-7zm-37 0l0 0zm12 -24c-25,-13 -43,0 -62,24 31,19 0,0 25,7l99 12c19,-6 74,-81 -19,-81 -37,0 -6,-12 -49,-12 0,12 6,25 6,50l0 0z"/>
  <path class="fil0" d="M340 786c0,0 0,0 0,6 0,0 0,0 0,0 0,0 -12,6 0,-6zm-68 49c25,13 31,-18 81,7 12,-19 0,-25 37,-38l25 19 -31 37 62 6c0,0 0,-68 0,-68 -13,-25 -75,-25 -69,-49 -49,37 19,12 -43,37 -18,12 -49,31 -62,49l0 0z"/>
  <path class="fil0" d="M3113 1411l6 6c0,0 -6,-6 -6,-6zm37 43c-56,-99 -7,-31 -68,-80 -13,12 -38,31 -44,55 -12,31 -12,56 19,62 25,0 0,6 12,-6 50,-31 50,-12 81,-31l0 0z"/>
  <path class="fil0" d="M1708 1634c0,0 6,0 6,0 0,0 0,0 0,0 0,0 -18,12 -6,0zm-31 31c25,-13 31,-13 49,-25 13,-13 25,-31 44,-44 -50,-24 -56,-18 -74,-30 43,-44 43,6 80,-19 -25,-12 -43,-6 -68,-12 -25,0 -37,-25 -43,12 -7,25 6,37 6,49 0,25 -6,50 6,69l0 0z"/>
  <path class="fil0" d="M1157 619c37,0 62,6 81,-31l31 -43 -118 -13c-19,6 -19,50 -6,68l12 19 0 0z"/>
  <path class="fil0" d="M1844 2098c0,0 0,0 0,0l0 0zm19 -25l0 0c0,0 0,0 0,0zm-50 -19l0 7c0,0 -6,-7 0,-7zm-105 -24c18,12 43,-7 74,-7 -6,44 37,13 6,75 62,31 44,18 112,24 6,44 18,13 12,50 31,6 19,6 43,-6l-31 -6 -18 -75c-56,-31 -50,0 -81,-24 -37,-38 -12,-38 -43,-62 -37,31 -31,6 -74,31l0 0z"/>
  <path class="fil0" d="M2537 1733c124,12 118,12 161,-25 -6,-25 -19,-56 -25,-68 -68,25 74,-6 -62,43l-74 50z"/>
  <path class="fil0" d="M2370 1528l0 0zm12 19c7,-25 13,-25 38,-25l-13 31 -25 -6zm-43 -37l37 43c-25,31 -25,0 -18,50l68 -7c-6,-12 0,-30 12,-49l25 -37c-31,-31 -31,-13 -62,-6 -43,6 -37,-31 -62,6l0 0z"/>
  <path class="fil0" d="M928 891c6,-6 6,0 6,0 0,0 0,0 0,0 0,0 -12,6 -6,0zm-37 6c43,37 -6,68 -6,93 0,12 0,19 12,31 50,-6 19,-25 81,-105 6,-6 6,-13 12,-19 -18,-6 -56,-12 -68,-6 -12,0 -19,0 -31,6z"/>
  <path class="fil0" d="M3589 1293c-31,25 -68,143 25,81 18,-13 62,-13 37,-62 -12,-19 -31,-25 -50,-25 -12,6 0,0 -12,6z"/>
  <path class="fil0" d="M210 1046c31,37 81,31 93,37 -25,37 -37,43 -62,56 31,24 37,-7 37,-7 0,0 0,0 0,0l7 -12c18,-12 18,-12 43,-12 -6,-19 -6,-25 12,-50 -49,-43 -55,-68 -130,-12l0 0z"/>
  <path class="fil0" d="M229 1516c62,-12 31,12 80,-62l-37 -37c-31,6 -12,6 -24,12 -25,13 -19,13 -38,44 -37,68 0,74 13,55l6 -12z"/>
  <path class="fil0" d="M1355 551c0,0 0,0 0,0 0,0 0,0 0,0 0,0 -12,12 0,0zm-18 -6c31,30 12,12 43,24 25,6 18,6 43,13 44,-37 44,-44 25,-62l-25 -13c-24,-24 6,13 0,-12l-12 -19 -74 69z"/>
  <path class="fil0" d="M2370 1374c25,18 25,0 50,18 -25,31 -44,25 -25,75l49 -7c0,-37 -6,-55 50,-68 -13,-18 -13,-12 -19,-37 0,0 0,0 -6,0 -19,6 -25,19 -49,31 -13,-25 -7,0 0,-25l-19 -31c-6,31 -6,13 -31,44z"/>
  <path class="fil0" d="M1590 1467c0,-7 0,0 0,0 0,0 7,0 7,0 0,0 -19,6 -7,0zm-68 -7c19,19 37,31 50,50 6,6 18,37 25,56 68,-19 12,-69 37,-124 -31,-6 6,31 -44,0 7,18 13,0 0,18 -31,-12 -18,0 -49,-24l-19 24 0 0z"/>
  <path class="fil0" d="M1386 1937c12,6 62,31 99,25 13,0 0,0 13,0 18,0 -7,6 18,6 19,-50 -31,-81 -68,-75 0,0 -19,7 -19,7 -37,24 13,6 -43,37z"/>
  <path class="fil0" d="M0 829l0 44 37 -7c25,-62 -6,-12 19,-62 18,-31 0,-18 24,-43 50,12 31,31 69,50l6 -44c-31,-24 -44,-43 -87,-12 -37,25 19,25 -37,25 -25,6 6,0 -31,49l0 0z"/>
  <path class="fil0" d="M2574 1238c6,6 50,24 56,24 43,7 31,-24 62,-6l-50 31c6,0 37,6 44,6l37 -49c-19,-19 -6,-19 -31,-31l-68 0c-13,6 -37,12 -50,25l0 0z"/>
  <path class="fil0" d="M2351 1714c-80,12 -55,31 -68,50 87,6 75,-7 130,-19 -12,-31 -24,-37 -43,-68l-31 0c0,31 -6,12 12,37z"/>
  <path class="fil0" d="M1448 1200c12,7 12,7 25,19 6,6 12,19 18,25 37,-31 13,-13 19,-50 6,-12 37,-49 -25,-74 -68,-25 -6,12 -37,80l0 0z"/>
  <path class="fil0" d="M1287 2141c0,0 0,0 0,0 0,0 0,0 0,0 0,0 -12,12 0,0zm-49 -25c37,25 24,75 86,6 25,25 6,19 37,19l0 -62c0,-6 13,-25 19,-31 -43,0 -68,62 -142,68z"/>
  <path class="fil0" d="M3360 928l-25 44c25,24 13,6 19,37 6,-7 49,-7 62,-19l37 -49c-19,-13 -68,-19 -93,-13l0 0z"/>
  <path class="fil0" d="M1634 1739c-68,6 -75,0 -93,-13 0,44 12,13 0,44 37,-19 74,12 111,-6 25,-19 13,-19 37,-25 25,-6 44,-13 62,-25 -25,-12 -37,-6 -62,-12 -31,0 -24,6 -55,37z"/>
  <path class="fil0" d="M68 1918l62 -24c19,30 6,0 12,24 31,-6 25,-6 37,-37 -24,0 0,13 -24,-6 18,-25 12,-6 6,-25 -19,-18 -31,-18 -56,-25l-37 93 0 0z"/>
  <path class="fil0" d="M1894 1566c0,0 6,0 6,0 0,0 0,6 0,6 0,-6 -19,6 -6,-6zm0 -44c18,25 12,6 12,31 -19,0 -43,-12 -87,50 25,18 25,12 44,6 24,-13 18,6 24,-37l25 18c12,-31 12,-12 0,-37 25,-18 12,0 25,-31 25,-55 18,0 43,-37 -43,-31 -18,0 -86,37l0 0z"/>
  <path class="fil0" d="M959 1986c0,0 0,0 -6,0l6 0zm-62 -49c6,18 44,62 62,62 25,6 50,6 62,-19 -19,-25 0,-6 -25,-25 -6,19 13,0 -12,25 -25,-25 -25,-18 -12,-49 -44,-7 -13,-19 -56,-19l-19 25 0 0z"/>
  <path class="fil0" d="M2927 1547l0 6c0,0 0,-6 0,-6zm0 0l-6 43c6,0 18,13 18,13 0,0 6,0 6,0 0,0 0,6 0,6 0,0 7,0 7,0 6,6 92,12 80,-56 -25,-6 -25,0 -56,0 -55,0 -24,-12 -49,-6l0 0z"/>
  <path class="fil0" d="M2766 1634l50 -25c-7,-19 6,-68 -56,-56 -25,6 -43,6 -25,37 0,0 0,0 0,6l31 38 0 0z"/>
  <path class="fil0" d="M3286 1262l0 0c0,0 -6,0 0,0zm-44 50c44,37 81,12 87,-31 0,-6 -6,-25 -12,-31 -37,6 -75,12 -75,62l0 0z"/>
  <path class="fil0" d="M3088 1200l12 44c50,-19 -31,-19 87,-31l-13 -37 -43 -19 -43 43 0 0z"/>
  <path class="fil0" d="M272 446c-31,6 -55,18 -43,55 43,19 93,-18 99,-25 -31,7 -25,0 -50,-68 -24,19 -30,13 -6,38z"/>
  <path class="fil0" d="M811 1071l31 30c-7,-30 0,-37 31,-61 -50,-62 -13,-50 -69,-87l0 -37c-37,25 -24,12 7,74 12,12 6,25 6,43 6,31 31,13 -6,38l0 0z"/>
  <path class="fil0" d="M2679 2023c56,31 31,-18 75,7 -7,31 6,0 -19,31l31 12c37,-43 0,-6 19,-37 -38,-25 -31,0 -44,-37 6,-6 0,-13 25,-6 25,12 19,6 43,12 -18,-25 0,-25 -86,-25 -31,37 -31,-6 -44,43l0 0z"/>
  <path class="fil0" d="M3707 1844c-25,-6 -7,6 -19,-12 -43,-50 -68,0 -62,18 13,25 37,19 62,19 0,0 68,-31 43,-75 -6,7 -12,13 -18,25 -13,31 6,6 -6,25l0 0z"/>
  <path class="fil0" d="M1795 1071c12,18 6,0 0,12 61,31 74,-25 117,-43 43,-13 0,6 37,0l6 -25c-24,12 -37,0 -55,-13 -25,50 -44,62 -105,69z"/>
  <path class="fil0" d="M0 1794l0 7c12,12 12,0 0,12l0 74c12,7 12,0 0,7l0 12 31 6c-6,-74 0,-37 37,-93 -31,-31 -6,-12 -49,-12 6,-19 6,-6 -7,-19l-12 7 0 -1z"/>
  <path class="fil0" d="M1757 1225c7,0 7,0 7,6 0,0 0,0 0,0 0,0 -13,7 -7,-6zm0 13c31,12 99,-38 130,-50 -6,-18 -6,0 0,-18 -37,0 -43,18 -80,18 -31,0 -56,12 -50,50l0 0z"/>
  <path class="fil0" d="M1516 1788l-37 31c43,6 62,19 74,-31l-31 -12c19,-37 -6,-62 -12,-87 -25,37 -19,68 6,99z"/>
  <path class="fil0" d="M1089 2030c6,0 6,0 6,6 0,0 0,0 0,0 0,0 -12,6 -6,-6zm-68 0c6,0 6,0 6,6 0,0 0,0 0,0 0,0 -12,6 -6,-6zm43 -25c0,0 7,0 7,0 0,6 0,6 0,6 0,0 -19,6 -7,-6zm-92 25c0,18 0,-7 6,12 12,12 12,-6 6,12 49,-31 37,7 49,-18 0,0 0,0 7,0 0,0 0,-6 0,-6l43 -7c6,38 12,7 0,31 37,-12 6,13 49,-24 -18,-7 -12,6 -18,-31 -31,6 -19,6 -37,-19 -19,56 -62,31 -105,50l0 0z"/>
  <path class="fil0" d="M62 1095l12 37 -43 44c43,0 19,-6 37,-13 12,0 19,0 43,-6 -6,-37 -24,-37 0,-74 19,12 7,12 13,25 31,-7 12,6 18,-19 -18,-6 0,6 -12,0 -12,-6 -12,-12 -25,-18 -25,30 -18,6 -43,24z"/>
  <path class="fil0" d="M3143 1361c0,-24 -12,-43 19,-24 -6,24 12,6 -19,24zm7 -24c0,0 0,0 0,0l0 0zm-31 31c31,24 31,12 68,0l0 -44 -31 -37c-19,12 -37,62 -37,81l0 0z"/>
  <path class="fil0" d="M3639 934l6 44 43 18 25 -43c-19,-31 -13,-19 -37,-37l-37 18 0 0z"/>
  <path class="fil0" d="M1052 278c0,0 19,-18 6,0 0,0 -18,19 -6,0zm6 -18c-25,12 -6,-12 -25,18 19,25 31,31 68,19 13,-37 -6,-74 -49,-74l6 37 0 0z"/>
  <path class="fil0" d="M1132 922c19,37 75,43 99,25 -12,-19 -12,-13 -18,-37 -13,-31 12,-13 -25,-44 0,13 6,25 -6,37 -6,13 -12,13 -25,19 -31,6 0,-12 -25,0l0 0z"/>
  <path class="fil0" d="M2215 1584l6 0c0,0 -6,0 -6,0zm-12 -6c37,43 74,-37 111,-25 -18,-25 7,0 -37,-12l-56 -19c-6,37 13,13 -18,56z"/>
  <path class="fil0" d="M3044 359c25,18 19,0 56,37 13,-19 13,-12 31,-31 -68,-62 12,-6 -68,-62 -31,44 6,13 -19,56z"/>
  <path class="fil0" d="M2376 1200l6 7c0,0 -6,-7 -6,-7zm-25 7l0 37c31,-13 7,6 31,-6 0,0 13,-7 13,-7 37,-31 -25,25 12,-12 19,-19 50,-6 50,-37 -31,0 -25,6 -50,-12 -18,18 -37,30 -56,37l0 0z"/>
  <path class="fil0" d="M786 353c18,0 49,-13 80,-31 -24,-25 -18,-19 -37,-25 -25,-6 -12,-12 -49,-6 6,25 -13,18 6,62z"/>
  <path class="fil0" d="M1627 1207c38,-13 25,18 69,-31l-25 -37c-25,0 -31,-7 -44,18 -6,19 -6,25 0,50l0 0z"/>
  <path class="fil0" d="M489 1071l43 6c-6,12 -18,0 31,24l31 13c19,12 -6,6 19,25l18 -31c-80,-44 -43,-50 -142,-37z"/>
  <path class="fil0" d="M2686 2166c31,12 37,12 55,-6 6,-25 -6,-38 -12,-62 -31,12 -56,18 -43,68l0 0z"/>
  <path class="fil0" d="M3044 1343l50 0c6,-37 0,-19 19,-50l-38 -24c-49,37 -12,37 -31,74l0 0z"/>
  <path class="fil0" d="M903 514c25,37 13,18 44,24 18,-24 43,-37 55,-62 -30,13 -61,-18 -99,38z"/>
  <path class="fil0" d="M2976 1386c19,19 25,31 38,19 0,0 6,0 6,0l31 -31c-19,-25 -25,-13 -13,-37 -49,18 -43,-25 -62,49l0 0z"/>
  <path class="fil0" d="M0 996l0 62c37,-25 31,0 56,-18l-13 -56c19,0 7,6 13,-19l-56 31 0 0z"/>
  <path class="fil0" d="M1547 1374c0,-6 6,0 6,0 0,0 0,0 0,0 0,0 -18,6 -6,0zm-25 -31c25,-6 6,-6 25,6 -6,31 -49,49 -80,62 0,-43 0,-13 6,-19 25,-37 -13,31 6,-18 -31,18 -12,24 -37,12 12,31 6,12 12,37l31 13c62,-62 56,-44 81,-62 -31,-62 -25,-25 -19,-56l-25 25 0 0z"/>
  <path class="fil0" d="M1454 866c31,37 6,37 74,37l25 -31c-37,-24 -12,7 -31,-24 -18,18 -37,24 -68,18z"/>
  <path class="fil0" d="M2816 1516c30,31 30,43 74,25 12,-37 0,-37 -37,-62l-37 37z"/>
  <path class="fil0" d="M2271 2141l31 -37c-19,-12 -19,-12 -37,-19 -19,-6 -19,-12 -37,-31 -13,25 -7,25 6,44 6,24 6,37 37,43l0 0z"/>
  <path class="fil0" d="M3143 1027l25 50 68 -25 -37 -6 6 -31c-24,-13 -43,-6 -62,12z"/>
  <path class="fil0" d="M1658 1368c0,0 0,6 0,6l0 -6zm-18 -25c0,0 6,6 6,6 0,0 0,0 0,0 0,0 -19,6 -6,-6zm-43 6c18,19 49,31 80,31l31 -31c-50,-12 -12,25 -37,-19l-44 19c-18,-19 -18,-25 -12,-43 -25,12 -25,18 -18,43l0 0z"/>
  <path class="fil0" d="M2030 1368l24 37c-18,12 -31,12 -37,31l6 43c31,-31 -6,6 31,-19 -6,-18 -6,-31 19,-49 -12,-19 -19,-31 -6,-50l-37 7 0 0z"/>
  <path class="fil0" d="M1194 2110c-99,12 -74,-25 -86,12 62,38 99,31 111,-37l-31 -6c6,31 -6,6 6,31z"/>
  <path class="fil0" d="M3193 1101c-12,25 -25,31 -6,56l31 -31c24,19 12,19 43,13l-6 -38c-43,-6 -19,-6 -62,0z"/>
  <path class="fil0" d="M3267 446c19,6 56,30 75,18 -13,-37 6,-6 -25,-12 6,-25 6,-13 25,-25 -13,-31 12,0 -19,-37l-56 56 0 0z"/>
  <path class="fil0" d="M229 1906c-19,25 -12,6 -12,25 6,24 12,24 18,24 6,-12 6,-24 6,-31 13,-24 13,-6 19,-43 -19,0 -12,-6 -25,-18l-31 0c0,30 0,30 25,43l0 0z"/>
  <path class="fil0" d="M2642 142c0,0 0,0 0,7l0 -7zm31 -18l0 6c0,0 0,0 0,-6zm0 -6l-18 24c-31,-18 -13,-12 -25,-12l12 62c19,-13 13,-13 19,-25l12 -12c0,0 0,0 0,0 37,-56 50,12 50,-44l-50 7 0 0z"/>
  <path class="fil0" d="M340 594c37,6 37,62 118,43l-50 -31c-24,-18 -24,-12 -49,-31l-19 19 0 0z"/>
  <path class="fil0" d="M1745 1479c25,18 43,0 74,-6l31 24c0,-18 -6,-12 13,-30l-62 -31c-13,24 -6,18 -56,43l0 0z"/>
  <path class="fil0" d="M1002 1151c-24,-25 -30,-19 -55,-12 18,37 0,0 37,37 49,-31 31,-13 68,-13 0,-18 -6,-24 -31,-37l-19 25 0 0z"/>
  <path class="fil0" d="M2611 2160c19,0 56,0 50,-25 0,-13 -37,-37 -50,-50 0,7 -6,56 0,75l0 0z"/>
  <path class="fil0" d="M3218 2085c0,0 -6,56 62,50 0,-31 -7,0 -13,-31 0,-31 13,0 13,-31 -38,-12 -19,25 -62,12z"/>
  <path class="fil0" d="M1578 2141l43 -25c-6,-24 -24,-43 -55,-43 -13,25 -13,43 12,68l0 0z"/>
  <path class="fil0" d="M3007 2092c0,24 -12,37 68,24l0 -31c-31,-6 -55,-6 -68,7z"/>
  <path class="fil0" d="M2952 1993c31,0 31,6 49,-25 -12,-25 -25,-31 -49,-37 -7,18 -7,31 0,62z"/>
  <path class="fil0" d="M656 1361l-50 19c-18,-25 0,-19 -24,-25 -31,81 74,56 74,6l0 0z"/>
  <path class="fil0" d="M0 545l0 37c19,12 6,0 12,18 0,0 7,44 44,13 -19,-25 -19,-13 -37,-38l24 -30c-18,-13 -24,-13 -43,0z"/>
  <path class="fil0" d="M1176 1386c31,19 -6,-6 24,6 13,6 13,13 25,19 50,-50 -31,-62 -31,-62 -6,12 -6,12 -6,12l-12 25 0 0z"/>
  <path class="fil0" d="M2927 1491c18,25 18,31 49,31 25,-55 19,-25 7,-68l-56 37z"/>
  <path class="fil0" d="M730 990c0,0 0,0 0,0 0,0 0,6 0,6 0,0 -12,6 0,-6zm-37 68c43,-25 12,-31 50,-31 18,0 43,0 61,-6 -24,-19 -30,-12 -49,-6l-25 -37c-25,37 -25,49 -37,80l0 0z"/>
  <path class="fil0" d="M2234 1157l74 0c-18,-25 0,-6 -25,-12l-18 -56c-37,37 -19,37 -31,68l0 0z"/>
  <path class="fil0" d="M1912 309c19,25 50,38 74,19 0,-31 7,-19 -18,-37 -25,0 -31,6 -56,18l0 0z"/>
  <path class="fil0" d="M1634 495c-7,-19 0,-25 6,-43 -19,-19 -13,-19 -43,-31 -13,31 -7,74 37,74z"/>
  <path class="fil0" d="M3014 1733l0 0zm-19 -13c12,44 31,19 37,50 37,-37 0,0 37,-19 -18,-25 -43,-62 -74,-31z"/>
  <path class="fil0" d="M2908 1405c19,37 -18,12 25,55l37 -37c-25,-31 -25,-25 -62,-18z"/>
  <path class="fil0" d="M1801 1553l12 13 56 -38 -56 -24c-6,6 -12,43 -12,49z"/>
  <path class="fil0" d="M3453 1207c18,49 -19,12 12,49 13,0 31,-6 37,-12 0,-31 -6,-37 -31,-56 0,19 13,6 -18,19l0 0z"/>
  <path class="fil0" d="M105 600l87 0c-25,-18 -37,-6 -50,-25 -18,-24 13,0 -12,-18 0,0 -25,-12 -25,-12 0,18 0,37 0,55z"/>
  <path class="fil0" d="M1046 842c18,-7 31,-25 43,-44 -43,-49 -68,13 -43,44z"/>
  <path class="fil0" d="M1640 687c37,-25 18,-50 37,-87 -99,0 -19,37 -37,87z"/>
  <path class="fil0" d="M2512 1844c37,31 -6,6 19,31 12,12 25,12 49,25l19 -19c-31,6 -37,-25 -50,-43l-37 6 0 0z"/>
  <path class="fil0" d="M3199 1269l19 24c6,-31 12,-18 18,-49 31,-6 13,12 44,-13l-19 -24c-25,31 -31,24 -49,43 -13,12 -7,6 -13,19z"/>
  <path class="fil0" d="M2686 811c24,0 55,-19 74,-44 -6,-6 -13,-12 -25,-12 -25,0 -18,6 -31,25l-6 0c0,6 0,6 0,6 0,0 -12,18 -12,25l0 0z"/>
  <path class="fil0" d="M3570 427c25,19 81,19 106,-12 -31,-25 -37,-7 -62,0 -37,12 -13,-13 -44,12z"/>
  <path class="fil0" d="M2005 1015c43,-68 25,-13 56,-56 -13,0 -25,0 -25,0 -19,-6 0,-12 -37,-12 12,37 0,49 0,49 -6,13 -25,-6 6,19l0 0z"/>
  <path class="fil0" d="M1269 1040l43 0 25 -38c-31,-12 -68,-6 -68,38z"/>
  <path class="fil0" d="M0 1473l0 55c37,-24 43,-31 56,-74 -31,19 -13,19 -56,19l0 0z"/>
  <path class="fil0" d="M1114 526l37 -19c-19,-24 -31,-31 -56,-12 -12,-25 6,-6 -18,-25 -19,31 0,19 37,56l0 0z"/>
  <path class="fil0" d="M3335 1071c19,18 44,24 62,12 -6,-25 0,-6 -6,-19 0,-6 -6,-12 -6,-18 -25,6 -31,0 -50,25l0 0z"/>
  <path class="fil0" d="M3669 483l0 0zm-30 -7l0 19c37,0 49,-12 74,-19l-6 -24c-19,12 -44,18 -68,24z"/>
  <path class="fil0" d="M1454 2135c25,18 44,12 68,-6 -18,-19 -37,-25 -49,-31l-19 37 0 0z"/>
  <path class="fil0" d="M2203 384c12,-37 -25,-31 18,-44 -43,-43 -80,25 -18,44z"/>
  <polygon class="fil0" points="291,1764 334,1776 334,1733 297,1726 "/>
  <path class="fil0" d="M2265 1417l-50 6c13,31 -12,13 31,31 19,-18 31,-37 44,-49l-25 -7 0 19 0 0z"/>
  <path class="fil0" d="M3131 2122c25,-18 37,-30 37,-61 -25,0 -25,0 -37,24 -12,13 -6,25 0,37z"/>
  <path class="fil0" d="M2908 1801c44,6 19,12 50,0 6,-31 12,-13 -6,-37 -13,0 -19,0 -31,12 -19,18 0,-6 -13,25l0 0z"/>
  <path class="fil0" d="M3292 1046l43 -37c-18,-13 -43,-13 -55,0 -7,12 0,24 12,37l0 0z"/>
  <path class="fil0" d="M12 1436c13,12 0,12 68,-19l-30 -19c-19,13 -31,19 -38,38l0 0z"/>
  <path class="fil0" d="M1559 767l38 -12c-19,-31 -19,-31 -56,-25 12,31 -13,6 18,37z"/>
  <path class="fil0" d="M910 1429l24 -24c-18,-25 -18,-25 -49,-37 -12,30 0,30 25,61z"/>
  <path class="fil0" d="M600 879l56 18c0,-37 -12,-31 -43,-49l-13 31 0 0z"/>
  <path class="fil0" d="M3372 421l0 25c25,-7 62,12 44,-38l-44 13z"/>
  <path class="fil0" d="M0 1361l43 0c-12,-24 7,-37 -43,-43l0 43z"/>
  <path class="fil0" d="M1609 1801c0,0 0,0 0,6 0,0 0,0 0,0 0,0 -12,6 0,-6zm-19 18c37,0 106,6 118,-18 -12,6 -50,6 -62,6 -37,0 -56,-31 -56,12l0 0z"/>
  <path class="fil0" d="M3583 538l18 25c19,-25 25,-25 25,-56 -25,0 -31,7 -43,31l0 0z"/>
  <polygon class="fil0" points="0,1083 0,1126 12,1132 50,1108 25,1083 25,1095 "/>
  <path class="fil0" d="M2067 241l37 -18c-25,-19 -12,-19 -56,-19 13,31 -12,6 19,37l0 0z"/>
  <path class="fil0" d="M3583 1473c25,-13 0,0 25,-6 12,0 31,-7 37,-7 -25,-24 -13,-18 -50,-24l-12 37z"/>
  <path class="fil0" d="M328 736l25 -6 -6 -43c-19,-13 6,0 -25,-6l6 55 0 0z"/>
  <path class="fil0" d="M3230 2061c19,-19 19,-25 0,-50 -43,6 -31,37 0,50z"/>
  <path class="fil0" d="M1491 2042l0 0c0,0 0,0 0,0zm-6 0c13,12 19,12 25,6l31 -25c-25,-18 -6,-6 -44,-12 -12,25 7,0 -12,31l0 0z"/>
  <path class="fil0" d="M1349 402l25 31 31 -31c-19,-18 -44,-18 -56,0z"/>
  <path class="fil0" d="M99 1299l43 -30c-49,-31 -12,24 -49,-19 -6,25 -6,31 6,49l0 0z"/>
  <path class="fil0" d="M476 1782c25,25 50,25 75,-6 -37,0 -50,-6 -75,6z"/>
  <path class="fil0" d="M2203 278c6,-18 6,-18 -12,-37l37 -18 -50 -6c0,24 6,43 25,61z"/>
  <path class="fil0" d="M2834 1850c12,19 25,25 43,25 7,-25 7,-25 -12,-43l-31 18 0 0z"/>
  <path class="fil0" d="M3478 1572c24,-13 18,0 37,-19 18,-18 12,-12 -6,-31 -38,37 -19,13 -31,50z"/>
  <path class="fil0" d="M1188 1856c37,0 56,-6 56,-43 -56,0 0,0 -31,19 -13,6 0,0 -13,6 -12,18 -6,-6 -12,18l0 0z"/>
  <path class="fil0" d="M2537 767c37,-18 50,-12 68,-24l-31 -25 -37 49z"/>
  <path class="fil0" d="M3236 1949c7,0 13,0 25,13l31 -31c-31,-19 -37,-7 -56,18z"/>
  <path class="fil0" d="M1405 1077c0,0 0,0 0,0 0,0 6,0 6,0 0,0 -19,6 -6,0zm-19 -6l19 18c49,-31 18,31 55,-18 -37,-31 -18,12 -74,0l0 0z"/>
  <path class="fil0" d="M2438 699c19,31 12,6 19,37 24,-24 24,-37 0,-55l-19 18z"/>
  <path class="fil0" d="M743 1429l55 31 25 -18c-31,6 -43,-31 -80,-13z"/>
  <path class="fil0" d="M3044 1040l19 18 37 -25c-12,-18 -12,-24 -31,-12l-25 19 0 0z"/>
  <path class="fil0" d="M662 1411c-6,6 -18,0 0,18 19,19 13,13 31,19l6 -31c-24,-6 -24,-12 -37,-6l0 0z"/>
  <path class="fil0" d="M489 1343c0,0 6,6 6,6 0,0 0,0 0,0 0,0 -18,6 -6,-6zm-25 6c19,25 13,6 13,31l30 6 0 -43c-37,0 -6,12 -43,6z"/>
  <path class="fil0" d="M501 835c19,19 0,19 25,19 37,6 19,-6 25,-19 -25,-12 -31,-12 -50,0z"/>
  <path class="fil0" d="M1089 1380l25 -19c6,-31 6,-18 -6,-37 -7,6 0,6 -7,6 -6,7 -24,7 -12,50l0 0z"/>
  <path class="fil0" d="M1788 1139c0,12 7,24 13,37l31 -37c-19,-13 -25,-19 -44,0z"/>
  <path class="fil0" d="M2500 1312c6,31 31,31 49,6 -18,-12 -30,-25 -49,-6z"/>
  <path class="fil0" d="M829 2085c25,31 19,25 56,19 -12,-19 -37,-37 -56,-19z"/>
  <path class="fil0" d="M885 1349c56,6 31,6 56,-6 -25,-31 -31,-19 -44,-13 -18,19 -6,-6 -12,19l0 0z"/>
  <path class="fil0" d="M1677 260c6,18 -12,18 25,18 18,-6 18,-6 31,-24 -31,0 -37,-6 -56,6z"/>
  <path class="fil0" d="M3496 1349c6,25 0,19 25,31 0,-6 12,-25 12,-37 -18,0 -31,-6 -37,6z"/>
  <path class="fil0" d="M2933 990c31,-25 12,-25 43,-31 -24,-18 0,-6 -18,0l-31 -12c-12,37 -12,18 6,43l0 0z"/>
  <path class="fil0" d="M2122 111c19,-6 13,0 31,-12 19,-12 13,-6 25,-25 -25,-6 -43,0 -56,37z"/>
  <path class="fil0" d="M3403 1188c19,6 13,6 38,0 -13,-31 18,-12 -13,-25 -18,-6 -25,0 -25,25z"/>
  <path class="fil0" d="M3335 835c19,13 37,7 56,-6l-25 -18 -31 24z"/>
  <path class="fil0" d="M1275 1182c6,0 6,6 6,6 0,0 0,0 0,0 0,0 -12,6 -6,-6zm-31 0l37 18c25,-37 -19,-6 31,-30 -19,0 -62,0 -68,12z"/>
  <path class="fil0" d="M3403 2172c25,19 25,-19 75,0l-7 -19c-24,7 -6,-12 -68,19z"/>
  <path class="fil0" d="M2116 934l0 25c31,0 13,-12 50,6 -19,-31 -25,-12 -19,-43l-31 12z"/>
  <path class="fil0" d="M3707 1658c12,31 12,25 37,44 0,-19 -6,-44 -13,-50 -18,6 -6,-12 -24,6l0 0z"/>
  <path class="fil0" d="M1225 1269l50 -13c-13,-12 -37,-12 -56,-18l6 31z"/>
  <path class="fil0" d="M1770 2147c49,-12 18,19 74,-6l-25 -12c-12,0 -43,6 -49,18l0 0z"/>
  <path class="fil1" d="M1405 1776c24,-6 24,12 31,-31l-25 -12c-6,18 0,18 -6,43z"/>
  <path class="fil0" d="M2952 557c31,0 24,6 43,-19 -31,-24 -43,-12 -43,19z"/>
  <path class="fil0" d="M3558 322l6 31c19,-13 31,-19 37,-37 -43,0 -12,18 -43,6z"/>
  <path class="fil0" d="M2692 848l12 24c37,-49 13,7 31,-37 -18,-6 -25,-6 -43,13z"/>
  <path class="fil0" d="M1163 693c31,25 13,0 44,6l0 -18c-19,0 -44,-13 -44,12l0 0z"/>
  <path class="fil0" d="M415 1250c24,19 24,19 43,-6 -19,-25 -25,-19 -43,6z"/>
  <path class="fil0" d="M3088 1553l49 -12c-18,-25 -49,-25 -49,12z"/>
  <path class="fil0" d="M2345 557c-6,12 -18,-6 6,18 13,7 44,-6 56,-6 -31,-18 0,-6 -37,-6 0,0 -12,-12 -25,-6l0 0z"/>
  <path class="fil0" d="M68 953l25 -19c-25,-24 -13,-18 -43,-18l18 37 0 0z"/>
  <path class="fil0" d="M2017 297l19 -6 0 -50c-25,19 -13,25 -19,56z"/>
  <path class="fil0" d="M594 1244c0,0 0,0 0,0 0,0 0,6 0,6 0,0 -12,6 0,-6zm-6 6c18,19 12,19 37,0 -12,-25 -19,-31 -37,0z"/>
  <path class="fil0" d="M798 1380c0,0 0,0 0,0 0,0 0,0 0,0 0,0 -12,12 0,0zm19 -6c-13,6 -37,-6 -62,0 19,12 37,37 62,0z"/>
  <path class="fil0" d="M501 1312c25,18 25,25 50,6 -19,-12 -31,-25 -50,-6z"/>
  <path class="fil0" d="M1269 619c37,0 24,0 37,-25 -25,-12 -37,-12 -37,25z"/>
  <path class="fil0" d="M2531 575l31 7c-13,-31 6,-31 -6,-56 -7,12 -19,37 -25,49z"/>
  <path class="fil0" d="M1671 439c6,-6 25,-12 25,-12 0,0 6,-19 12,-25 -31,0 -37,0 -37,37z"/>
  <path class="fil0" d="M1436 613l12 31c19,-13 31,-19 25,-38l-37 7z"/>
  <path class="fil0" d="M105 1986c13,13 19,13 37,0 -18,-37 0,-12 -24,-24l-13 24z"/>
  <path class="fil0" d="M1757 1132l25 -24 -31 -19c-12,25 -18,19 6,43l0 0z"/>
  <path class="fil0" d="M3267 1188c19,12 13,12 37,0l0 -18c-18,0 -24,0 -37,18z"/>
  <path class="fil0" d="M2710 1881l19 19 18 -13c-18,-18 -6,-6 -18,-24l-19 18 0 0z"/>
  <path class="fil0" d="M1324 866l13 0c49,6 24,13 49,-6 -18,-25 -6,-6 -25,-6 -24,6 -6,-12 -37,12z"/>
  <path class="fil0" d="M1027 674c0,-6 13,-18 13,-30 0,-31 0,-13 -19,-19 -6,12 -12,25 6,49l0 0z"/>
  <path class="fil0" d="M1751 396c19,-6 25,0 19,-37 -31,0 -25,18 -19,37z"/>
  <path class="fil0" d="M3230 1584c-25,-18 -12,-12 -49,-6 12,18 31,31 49,6z"/>
  <path class="fil0" d="M359 1095l37 -6c-25,-25 -6,-18 -37,-18l0 24z"/>
  <path class="fil0" d="M229 644c6,-25 -19,-31 -43,-31 12,12 24,37 43,31z"/>
  <path class="fil0" d="M0 1999l0 6c12,-6 12,0 0,-6zm0 12l0 31 43 -25c-18,-12 -24,-12 -43,-6z"/>
  <path class="fil0" d="M2147 179c6,-18 6,-6 19,-18 6,-12 0,-6 6,-25l-31 0 6 43 0 0z"/>
  <path class="fil0" d="M439 1473l25 24 19 -18c-19,-19 -25,-19 -44,-6l0 0z"/>
  <path class="fil0" d="M1064 1244c0,0 7,0 7,0 0,0 0,6 0,6 0,0 -19,6 -7,-6zm-6 0l19 25 24 -19c-18,-19 -30,-19 -43,-6l0 0z"/>
  <path class="fil0" d="M2153 427l19 0 0 -37c-31,12 -12,6 -19,37z"/>
  <path class="fil0" d="M1955 1980c0,0 -24,-6 0,13 19,18 13,12 25,12 0,-25 6,-12 -6,-25 -25,-18 -19,0 -19,0l0 0z"/>
  <path class="fil0" d="M3558 1596l12 -24c-24,-6 0,12 -24,-13 -6,25 -13,19 12,37l0 0z"/>
  <path class="fil0" d="M2846 897c38,13 -18,6 31,25 13,-31 -6,-6 -12,-43l-19 18 0 0z"/>
  <path class="fil0" d="M1157 1151c-18,-43 0,0 -37,-19 12,25 12,31 37,19z"/>
  <path class="fil0" d="M2976 229l7 0c0,0 -7,0 -7,0zm-6 25c37,0 19,0 37,-6l-24 -31c-19,37 0,0 -13,37z"/>
  <path class="fil0" d="M1528 260c-12,-31 0,-25 -37,-19 13,19 13,19 37,19z"/>
  <path class="fil0" d="M3453 829l43 6 -6 -18c-19,0 -19,0 -37,12l0 0z"/>
  <path class="fil0" d="M1621 136l31 -31c-37,0 -18,6 -43,0 6,31 -6,6 12,31z"/>
  <path class="fil0" d="M3187 1714l12 -25 -31 -18c13,24 6,37 19,43l0 0z"/>
  <path class="fil0" d="M2803 1021c25,-6 25,0 31,-19 -25,-18 -31,-6 -31,19z"/>
  <path class="fil1" d="M2382 1547l25 6 13 -31c-25,0 -31,0 -38,25z"/>
  <path class="fil0" d="M1906 136l31 -12c-25,-25 -25,-13 -19,-37 -24,18 -6,12 -12,49l0 0z"/>
  <path class="fil0" d="M2098 1207l31 -7 -25 -30c0,24 -6,6 -6,37z"/>
  <path class="fil0" d="M3032 309c25,-12 31,-24 0,-37 -25,37 12,-6 0,37z"/>
  <path class="fil0" d="M2488 1931c24,-13 31,0 6,-31 -19,12 -19,6 -6,31z"/>
  <path class="fil0" d="M1869 1999c0,6 -19,-6 6,12 19,19 0,6 31,6 -37,-43 -31,-24 -37,-18l0 0z"/>
  <path class="fil0" d="M272 1312c25,0 37,0 37,-31 -18,0 -24,6 -37,31z"/>
  <path class="fil0" d="M2420 1083l-31 -37c-25,43 0,25 31,37z"/>
  <path class="fil0" d="M3434 804c37,0 25,7 44,-18 -19,-6 -25,-6 -44,18z"/>
  <path class="fil0" d="M3614 2122c18,25 6,19 31,19 -6,-31 -6,-6 0,-25 -13,0 -25,0 -31,6z"/>
  <path class="fil0" d="M693 1256c37,6 43,-6 43,-37 -49,43 7,12 -43,37z"/>
  <path class="fil0" d="M916 2104c25,0 18,6 37,-19 -25,0 -25,0 -37,19z"/>
  <path class="fil0" d="M1832 934l18 19c19,-19 13,-6 19,-31 -31,12 -13,19 -37,12l0 0z"/>
  <path class="fil0" d="M1850 136c-6,13 -18,0 0,19 19,6 37,-7 19,-19 -25,-18 -13,-6 -19,0z"/>
  <polygon class="fil0" points="1819,0 1795,0 1788,12 1813,31 "/>
  <polygon class="fil0" points="1590,872 1615,848 1578,848 "/>
  <path class="fil0" d="M3713 390c25,12 18,12 43,-6 -12,-13 -25,-7 -43,6z"/>
  <polygon class="fil0" points="2648,1368 2686,1380 2679,1343 "/>
  <path class="fil0" d="M2401 316c0,-7 6,0 6,0 0,0 0,0 0,0 0,0 -18,6 -6,0zm-12 12c24,0 18,6 37,-19 -25,-6 -31,0 -37,19z"/>
  <polygon class="fil0" points="2172,49 2209,43 2184,19 "/>
  <path class="fil0" d="M823 514c19,0 25,-7 25,-25 -19,0 -25,6 -25,25z"/>
  <path class="fil0" d="M3020 941c18,0 18,-7 24,-25 -18,6 -30,6 -24,25z"/>
  <polygon class="fil0" points="1702,2160 1733,2178 1726,2141 "/>
  <path class="fil0" d="M1411 792l37 -6 -19 -25c-24,25 -18,12 -18,31l0 0z"/>
  <path class="fil0" d="M848 1194c0,0 0,0 0,0 0,0 0,0 0,0 0,0 -13,13 0,0zm-13 25l38 -6 -25 -31c-19,37 6,0 -13,37z"/>
  <path class="fil0" d="M2215 1683c19,6 25,6 37,0 -6,-18 0,-12 -18,-12 -6,0 -13,0 -19,12l0 0z"/>
  <path class="fil0" d="M2290 1368l12 12 6 -43c-25,18 -18,6 -18,31l0 0z"/>
  <path class="fil0" d="M2321 606c0,-12 -7,-37 -19,-49 6,25 -6,49 19,49z"/>
  <path class="fil0" d="M347 1460c0,-31 0,-12 -7,-31 -18,13 -31,13 7,31z"/>
  <polygon class="fil0" points="124,650 142,631 105,625 "/>
  <path class="fil0" d="M3471 1139l50 12c-19,-25 -37,-31 -50,-12z"/>
  <path class="fil0" d="M928 2030l13 -31 -25 0c0,24 -13,12 12,31l0 0z"/>
  <path class="fil0" d="M2840 1578l6 25c50,-19 -18,0 38,-25l-44 0z"/>
  <polygon class="fil0" points="3453,1089 3478,1071 3447,1058 "/>
  <path class="fil0" d="M2036 1918c25,19 12,13 37,0 -6,0 0,0 -19,-6 -43,0 -12,0 -18,6l0 0z"/>
  <path class="fil0" d="M3632 167l31 -6c-18,-19 -6,-6 -24,-25 -13,31 6,0 -7,31z"/>
  <path class="fil0" d="M1850 569l44 -12c-13,-6 -56,-12 -44,12z"/>
  <path class="fil0" d="M2506 1002l25 0 -6 -30c-31,24 -6,0 -19,30z"/>
  <path class="fil0" d="M2834 1194c19,6 19,-6 25,-24 -19,6 -13,0 -19,12 -12,12 -6,0 -6,12l0 0z"/>
  <path class="fil0" d="M458 1801c-6,-31 0,-25 -31,-25 6,18 6,18 31,25z"/>
  <path class="fil0" d="M3069 990c19,6 25,0 25,-18 -25,0 -25,0 -25,18z"/>
  <path class="fil0" d="M3156 1955c18,7 18,0 18,-18 -18,0 -24,0 -18,18z"/>
  <path class="fil0" d="M3106 1726c7,7 -12,7 13,13 12,0 6,0 18,-6 -18,-19 -12,-19 -31,-7z"/>
  <polygon class="fil0" points="2797,501 2828,489 2791,470 "/>
  <polygon class="fil0" points="532,1200 551,1170 526,1170 "/>
  <path class="fil0" d="M2642 798c19,25 0,13 31,13 -12,-19 -18,-31 -31,-13z"/>
  <path class="fil0" d="M2073 297c25,6 19,0 25,-19 -19,7 -37,0 -25,19z"/>
  <path class="fil1" d="M3150 1337l0 0c0,0 0,0 0,0zm-7 24c31,-18 13,0 19,-24 -31,-19 -19,0 -19,24z"/>
  <path class="fil0" d="M1250 2079l6 -31 -18 0c6,31 -13,13 12,31l0 0z"/>
  <path class="fil0" d="M198 1361c19,-6 12,0 31,-24 -25,0 -31,0 -31,24z"/>
  <path class="fil0" d="M563 210c19,13 6,13 31,-12 -18,0 -31,-6 -31,12z"/>
  <path class="fil0" d="M390 1497l37 -6c-25,-31 6,19 -25,-18l-12 24z"/>
  <path class="fil0" d="M2048 1083l6 12c7,0 25,-12 25,-24 -25,0 -6,-7 -31,12l0 0z"/>
  <path class="fil0" d="M118 984c6,6 6,12 24,0 13,-13 7,0 7,-13 -19,0 -7,-6 -31,13z"/>
  <path class="fil0" d="M3403 365c19,-12 7,12 25,-25 -31,0 -25,-12 -25,25z"/>
  <path class="fil0" d="M3032 495l19 0 0 -25c-37,19 -7,0 -19,25z"/>
  <path class="fil0" d="M1460 693c0,6 -6,6 13,6 25,6 12,6 25,0 -19,-12 -25,-12 -38,-6z"/>
  <path class="fil0" d="M2432 928l49 -12c-24,0 -49,-6 -49,12z"/>
  <path class="fil0" d="M1015 972c6,-7 18,-25 6,-38 -12,25 -12,19 -6,38z"/>
  <path class="fil0" d="M928 235l13 -31c-13,6 -13,-18 -19,13 -6,18 -6,6 6,18l0 0z"/>
  <path class="fil0" d="M1436 365c-7,6 62,19 24,-6 0,0 0,0 0,0l-24 6z"/>
  <path class="fil0" d="M3669 594l31 0 -6 -19c-25,7 -12,0 -25,19z"/>
  <path class="fil0" d="M3267 743l25 6 -6 -25c-25,12 -6,0 -19,19z"/>
  <path class="fil0" d="M2945 854l0 6c0,-6 0,-6 0,-6zm-6 12c19,0 13,6 31,-18 -18,6 -37,-6 -31,18z"/>
  <path class="fil0" d="M3063 1689c12,19 31,6 31,-6 -25,0 -6,-6 -31,6z"/>
  <path class="fil1" d="M3688 811c25,-7 6,12 25,-19 -50,-6 -6,-12 -25,19z"/>
  <path class="fil0" d="M3502 390c13,6 0,0 25,6 -12,-31 0,-6 -6,-25 -25,6 -6,0 -19,19z"/>
  <path class="fil0" d="M1033 507l19 13 0 -31c-25,12 -6,0 -19,18z"/>
  <path class="fil0" d="M3502 1200l19 13 0 -31c-25,12 -6,0 -19,18z"/>
  <path class="fil0" d="M1448 309c-12,-18 6,-18 -25,-18 19,31 0,12 25,18z"/>
  <path class="fil0" d="M3750 1015c0,0 -43,-6 25,18 -31,-49 -25,-18 -25,-18z"/>
  <path class="fil0" d="M3298 600l44 0c-19,-18 0,-12 -19,-12 -37,6 -12,6 -25,12l0 0z"/>
  <path class="fil0" d="M2791 792c6,19 -6,6 18,12l0 -24c0,0 -6,0 -6,0 0,0 0,0 0,0l-12 12 0 0z"/>
  <path class="fil0" d="M761 1293l37 -6c-24,-18 -24,-12 -37,6z"/>
  <path class="fil0" d="M1324 712c19,-7 19,6 13,-19 -13,0 -13,-12 -13,19z"/>
  <path class="fil0" d="M2816 0l-7 0c7,25 -6,31 25,19l-18 -19z"/>
  <path class="fil0" d="M1671 829c25,6 18,6 18,-12 -12,0 -24,0 -18,12z"/>
  <path class="fil0" d="M1052 2048l6 6c0,7 6,0 13,0 0,-6 0,0 6,-24l-25 18 0 0z"/>
  <path class="fil0" d="M3496 953c25,-6 6,12 25,-19 -12,0 -25,-6 -25,19z"/>
  <path class="fil0" d="M3509 0l-19 0 -12 12c31,-6 12,19 31,-12z"/>
  <path class="fil0" d="M1881 786l25 -19c-31,-6 -25,-18 -25,19z"/>
  <path class="fil0" d="M2618 767l6 19c6,-19 6,-13 24,-25 -18,0 -24,0 -30,6z"/>
  <path class="fil0" d="M2092 371c6,-12 12,-6 -19,-18 6,18 -6,6 6,18 19,13 0,6 13,0l0 0z"/>
  <path class="fil0" d="M662 43c19,13 0,13 25,0 -31,-18 -6,-12 -25,0z"/>
  <path class="fil1" d="M2098 1726l24 19c-6,-31 7,-6 -18,-25l-6 6z"/>
  <path class="fil0" d="M3249 501c31,-25 24,-18 12,-31l-12 31z"/>
  <path class="fil1" d="M0 1665l0 12c25,-12 6,12 25,-25l-25 13 0 0z"/>
  <path class="fil0" d="M2785 854l-31 -12c6,12 -19,18 31,12z"/>
  <path class="fil0" d="M625 192c31,18 6,12 31,0 -31,-13 -6,-13 -31,0z"/>
  <path class="fil0" d="M2246 674l13 -12c-19,-12 -31,-6 -13,12z"/>
  <path class="fil0" d="M37 192l13 -13c-19,-12 -25,-6 -13,13z"/>
  <path class="fil0" d="M687 99l12 -12c-18,-13 -24,-7 -12,12z"/>
  <path class="fil0" d="M408 1361l13 -12c-19,-19 -25,-6 -13,12z"/>
  <path class="fil0" d="M3119 1126l12 -12c-18,-19 -31,-6 -12,12z"/>
  <path class="fil0" d="M1033 600l0 19c19,-19 13,-6 7,-25l-7 6z"/>
  <path class="fil0" d="M285 1832l6 18c18,-12 12,0 6,-25l-12 7z"/>
  <path class="fil0" d="M489 1733l6 18c19,-18 12,-6 6,-25l-12 7z"/>
  <path class="fil0" d="M464 959c-6,-25 6,-25 -25,-31l25 31z"/>
  <path class="fil0" d="M2580 1312c-6,-25 7,-25 -24,-25l24 25z"/>
  <path class="fil0" d="M2593 582c18,12 0,12 18,0 -31,-19 -18,0 -18,0z"/>
  <path class="fil0" d="M2760 62c18,6 6,6 25,-6 -38,-19 -25,6 -25,6z"/>
  <path class="fil0" d="M2741 1021c25,12 6,12 25,0 -37,-19 -25,0 -25,0z"/>
  <path class="fil0" d="M1646 1479c19,12 0,12 19,0 -38,-19 -19,0 -19,0z"/>
  <path class="fil0" d="M1139 1380c18,6 0,6 18,0 -37,-19 -18,0 -18,0z"/>
  <path class="fil0" d="M2983 1429c18,13 0,13 18,0 -31,-18 -18,0 -18,0z"/>
  <path class="fil0" d="M37 1986c19,13 0,13 19,0 -31,-18 -19,0 -19,0z"/>
  <path class="fil0" d="M3422 1609l12 6c0,0 7,0 7,0 -7,-19 -7,-6 0,-25l-19 19 0 0z"/>
  <path class="fil0" d="M1312 1368l31 -13c-56,-6 -19,0 -31,13z"/>
  <path class="fil0" d="M644 248c0,0 0,0 0,0 0,0 0,0 0,0 0,0 -13,6 0,0zm0 12l18 -12c-25,-13 -31,-7 -18,12z"/>
  <path class="fil0" d="M489 1516c0,0 25,19 18,0 -12,-19 -18,-19 -18,0z"/>
  <path class="fil0" d="M50 569c0,0 24,19 12,-6 -6,-12 -12,-12 -12,6z"/>
  <path class="fil0" d="M712 1275c0,6 24,24 12,0 -6,-13 -19,-13 -12,0z"/>
  <path class="fil0" d="M786 2030c0,6 25,18 12,0 -6,-13 -12,-19 -12,0z"/>
  <polygon class="fil0" points="0,254 25,248 0,235 "/>
  <path class="fil0" d="M811 390l6 6c6,0 6,-6 18,0 -6,-12 -12,-19 -24,-6z"/>
  <path class="fil0" d="M1132 2048l7 6c6,0 6,-6 18,0 -6,-12 -12,-18 -25,-6z"/>
  <path class="fil0" d="M1955 446l7 12c6,0 0,-6 18,0 -12,-19 -12,-19 -25,-12z"/>
  <path class="fil0" d="M928 111l6 7c0,0 0,6 0,6 19,-13 13,0 7,-25l-13 12 0 0z"/>
  <path class="fil0" d="M2420 1918l30 0c0,0 13,-6 -12,-6 -18,6 -12,0 -18,6z"/>
  <polygon class="fil0" points="3663,0 3651,0 3657,25 "/>
  <polygon class="fil0" points="2153,0 2135,0 2141,19 "/>
  <path class="fil0" d="M3311 316c-7,12 12,6 6,-7 0,-12 -6,-12 -6,7z"/>
  <path class="fil0" d="M2933 786c0,12 12,6 12,0 0,-13 -6,-19 -12,0z"/>
  <path class="fil0" d="M2092 25c-7,12 12,6 12,0 -6,-13 -12,-19 -12,0z"/>
  <path class="fil0" d="M2816 62c0,12 12,6 12,-6 0,-13 -6,-13 -12,6z"/>
  <path class="fil0" d="M1578 2036c-12,-25 0,-13 -31,-13l31 13z"/>
  <path class="fil0" d="M62 897c0,6 18,19 6,0 0,-12 -12,-12 -6,0z"/>
  <path class="fil0" d="M2531 49c0,13 18,25 12,0 -6,-6 -18,-12 -12,0z"/>
  <path class="fil0" d="M1819 1250c0,12 19,25 13,6 -7,-12 -13,-12 -13,-6z"/>
  <path class="fil0" d="M755 712c0,6 19,18 12,0 -6,-13 -18,-13 -12,0z"/>
  <path class="fil0" d="M736 1392c-12,-24 -6,-6 0,-12l-6 -12c-6,0 -18,12 6,24l0 0z"/>
  <path class="fil0" d="M3205 2005c-12,-31 -6,-6 0,-19l-6 -6c0,0 -12,13 6,25z"/>
  <path class="fil0" d="M1968 582c-13,-25 0,-7 6,-13l-12 -12c0,0 -13,12 6,25l0 0z"/>
  <path class="fil0" d="M2661 953c-13,-25 0,-6 6,-12l-6 -13c-6,0 -19,13 0,25l0 0z"/>
  <path class="fil0" d="M111 1002c-12,-24 -6,0 0,-12l-6 -12c-6,0 -18,12 6,24l0 0z"/>
  <path class="fil0" d="M551 1275c-13,-25 -6,-6 0,-13l-6 -12c-7,0 -19,12 6,25l0 0z"/>
  <path class="fil0" d="M2877 1819c0,-6 7,-6 7,-6 0,0 0,-6 0,-6 0,-13 0,-6 -7,-13 -12,19 -12,0 0,25l0 0z"/>
  <path class="fil0" d="M3372 1801c13,-19 13,-7 0,-25 0,6 0,6 0,6 0,6 -6,6 0,19z"/>
  <path class="fil0" d="M668 1869c7,-19 13,-6 0,-25 0,6 -6,6 -6,6 0,6 -6,6 6,19z"/>
  <path class="fil1" d="M179 1751c0,0 25,19 13,0 -13,-12 -19,-12 -13,0z"/>
  <path class="fil0" d="M507 1999l13 0c6,0 6,6 12,6 -12,-12 -12,-19 -25,-6l0 0z"/>
  <path class="fil0" d="M1597 1157c12,-18 12,-6 0,-18l-7 6c7,6 0,6 7,12l0 0z"/>
  <path class="fil0" d="M538 1244c25,-6 7,12 25,-25l-25 25z"/>
  <path class="fil0" d="M1108 1931c0,0 24,12 12,0 -6,-13 -19,-13 -12,0z"/>
  <path class="fil0" d="M2884 31c0,6 24,18 12,6 -6,-12 -12,-18 -12,-6z"/>
  <path class="fil0" d="M50 2104c0,6 24,18 12,6 -6,-12 -12,-18 -12,-6z"/>
  <path class="fil0" d="M2710 1157c0,6 19,19 7,0 -7,-12 -13,-12 -7,0z"/>
  <path class="fil0" d="M2457 74c0,6 18,19 6,0 -6,-12 -13,-12 -6,0z"/>
  <path class="fil0" d="M2655 74c0,6 24,19 12,0 -6,-12 -12,-12 -12,0z"/>
  <path class="fil0" d="M2512 272c0,0 25,13 13,0 -6,-12 -19,-12 -13,0z"/>
  <path class="fil0" d="M229 1609c0,0 25,18 12,0 -12,-13 -18,-13 -12,0z"/>
  <path class="fil0" d="M272 1584c0,0 25,12 13,0 -13,-12 -19,-12 -13,0z"/>
  <path class="fil0" d="M501 1033c0,0 19,19 13,0 -13,-12 -19,-12 -13,0z"/>
  <path class="fil0" d="M767 1238c7,0 25,12 13,0 -6,-13 -13,-13 -13,0z"/>
  <path class="fil0" d="M3688 433c0,0 25,13 12,0 -6,-12 -18,-12 -12,0z"/>
  <path class="fil0" d="M545 1720c0,0 18,13 6,0 -6,-12 -13,-12 -6,0z"/>
  <path class="fil0" d="M291 637c0,0 18,13 6,0 -6,-12 -12,-12 -6,0z"/>
  <path class="fil0" d="M3719 1225c0,0 6,6 6,6 0,7 6,13 25,13l-31 -19 0 0z"/>
  <path class="fil0" d="M421 377c0,7 0,19 25,19l-25 -19z"/>
  <path class="fil0" d="M644 1213l24 -6c-31,-19 -24,0 -24,6z"/>
  <path class="fil0" d="M427 1194c-12,-37 0,-18 -19,-24l19 24z"/>
  <polygon class="fil0" points="0,2135 19,2129 0,2116 "/>
  <path class="fil0" d="M3484 631c0,6 12,13 25,0 -19,6 -7,0 -13,-6l-12 6 0 0z"/>
  <path class="fil0" d="M897 427c0,6 13,12 25,0 -25,6 -12,0 -19,-6l-6 6z"/>
  <path class="fil0" d="M1312 421c0,6 12,12 25,-6 -25,12 -13,6 -19,0l-6 6z"/>
  <path class="fil0" d="M161 2153l-25 -6c6,6 -6,19 25,6z"/>
  <path class="fil0" d="M2327 965l-25 0c6,0 -6,19 25,0z"/>
  <path class="fil0" d="M1968 1813c-13,12 -6,12 6,0 12,-12 6,-12 -6,0z"/>
  <path class="fil0" d="M1918 693c-12,12 -6,19 6,6 13,-18 7,-18 -6,-6z"/>
  <path class="fil0" d="M2370 43c-12,13 -6,13 0,0 12,-12 6,-12 0,0z"/>
  <path class="fil0" d="M1869 1794c-13,13 -6,13 6,0 12,-12 6,-12 -6,0z"/>
  <path class="fil0" d="M3292 1132c-12,13 -6,19 0,7 12,-19 12,-19 0,-7z"/>
  <path class="fil0" d="M1052 1002c0,0 6,0 6,0l13 0c-19,-18 0,-18 -19,0l0 0z"/>
  <path class="fil0" d="M1795 1863c0,0 6,0 6,0l18 0c-24,-13 -6,-13 -24,0z"/>
  <path class="fil0" d="M1275 1244c12,6 31,-13 12,-6 0,0 -18,-7 -12,6z"/>
  <path class="fil0" d="M74 2079c13,13 31,-6 13,0 0,0 -25,-6 -13,0z"/>
  <path class="fil0" d="M3484 1021c12,12 31,-6 12,0 0,0 -18,-6 -12,0z"/>
  <path class="fil0" d="M650 1275c12,12 31,-6 12,0 0,0 -25,-6 -12,0z"/>
  <path class="fil0" d="M1566 1275c6,12 24,-6 12,0 -6,0 -25,-6 -12,0z"/>
  <path class="fil0" d="M2481 1275c7,12 25,-6 7,0 0,0 -19,-6 -7,0z"/>
  <path class="fil0" d="M897 192c6,12 25,-6 13,0 -7,0 -25,-6 -13,0z"/>
  <path class="fil0" d="M1355 755c6,6 25,-12 6,-6 0,0 -18,-6 -6,6z"/>
  <path class="fil0" d="M1176 1819c6,6 24,-12 12,-6 0,0 -25,-6 -12,6z"/>
  <path class="fil0" d="M650 1108c12,6 31,-13 12,-7 0,0 -25,-6 -12,7z"/>
  <path class="fil0" d="M644 1776l-25 -19c12,25 0,13 25,19z"/>
  <path class="fil0" d="M2890 1473l-6 -25c-7,19 -13,0 6,25z"/>
  <path class="fil0" d="M1355 241l0 -18c-12,12 -12,0 0,18z"/>
  <path class="fil0" d="M2989 99l0 -19c-13,13 -19,0 0,19z"/>
  <path class="fil0" d="M3540 1405l18 0c-18,-13 0,-13 -18,0z"/>
  <path class="fil1" d="M3453 1943l25 0c-44,-6 -13,-6 -25,0z"/>
  <path class="fil0" d="M3014 2160l24 -7c-43,-6 -12,-6 -24,7z"/>
  <path class="fil0" d="M767 464l-24 -6c12,6 -13,6 24,6z"/>
  <path class="fil0" d="M1516 353c0,24 6,6 6,0 0,0 -6,-19 -6,0z"/>
  <path class="fil0" d="M3447 1683c0,19 6,0 0,0 0,0 0,-18 0,0z"/>
  <path class="fil0" d="M501 1423c0,19 6,0 6,0 -6,0 -6,-25 -6,0z"/>
  <path class="fil0" d="M600 2135c0,18 13,0 6,0 0,0 -6,-25 -6,0z"/>
  <path class="fil0" d="M3521 1275l12 18c0,0 7,0 13,0l-25 -18 0 0z"/>
  <path class="fil1" d="M0 1887l0 7c12,-7 12,0 0,-7z"/>
  <path class="fil1" d="M0 1683l0 6c12,-6 12,0 0,-6z"/>
  <path class="fil1" d="M0 1801l0 12c12,-12 12,0 0,-12z"/>
  <path class="fil1" d="M235 2079c0,6 6,0 6,0 0,0 0,0 0,0 0,0 -18,-12 -6,0z"/>
  <path class="fil1" d="M1658 1374c0,0 0,-6 0,-6 0,0 7,0 7,0 0,0 -19,-7 -7,6z"/>
  <path class="fil1" d="M1887 1275c0,6 0,0 0,0 0,0 0,0 0,0 0,0 -12,-6 0,0z"/>
  <path class="fil1" d="M223 2067c0,0 0,-6 0,-6 0,0 0,0 0,0 0,0 -13,-7 0,6z"/>
  <path class="fil1" d="M953 1986c6,0 6,0 6,0 0,0 0,0 0,0 0,0 -12,-12 -6,0z"/>
  <path class="fil0" d="M186 1040c0,0 0,0 0,0 0,0 6,0 6,0 0,0 -19,-13 -6,0z"/>
  <path class="fil0" d="M365 1170c0,0 0,-7 0,-7 0,0 0,0 0,0 0,0 -12,-6 0,7z"/>
  <path class="fil0" d="M390 1906c0,0 0,-6 0,-6 0,0 0,0 0,0 0,0 -13,-7 0,6z"/>
  <path class="fil0" d="M693 2005c0,0 6,-6 6,0 0,0 0,-6 0,-6 0,6 -18,-6 -6,6z"/>
  <path class="fil0" d="M1306 1702c0,0 0,-7 0,-7 0,7 0,0 0,0 0,0 -13,-6 0,7z"/>
  <path class="fil0" d="M489 2005c0,0 6,-6 6,0 0,0 0,-6 0,-6 0,6 -12,-6 -6,6z"/>
  <path class="fil0" d="M897 2104c0,6 0,0 0,0 0,0 6,0 0,0 0,0 -12,-6 0,0z"/>
  <path class="fil0" d="M2166 446c0,6 0,0 0,0 0,0 6,0 6,0 0,0 -19,-7 -6,0z"/>
  <path class="fil0" d="M1052 1275c0,6 0,0 0,0 0,0 0,0 0,0 0,0 -12,-6 0,0z"/>
  <path class="fil0" d="M1151 1009c0,0 0,-7 0,-7 0,0 6,0 6,0 -6,0 -18,-6 -6,7z"/>
  <path class="fil0" d="M2265 551c6,0 6,-6 6,-6 0,6 0,0 0,0 0,0 -12,-7 -6,6z"/>
  <path class="fil0" d="M675 668c6,0 6,-6 6,0 0,0 0,-6 0,-6 0,0 -13,-6 -6,6z"/>
  <path class="fil0" d="M2172 538c6,7 6,0 6,0 0,0 0,0 0,0 0,0 -12,-6 -6,0z"/>
  <path class="fil0" d="M192 340c6,0 6,-6 6,-6 0,0 0,0 0,0 0,0 -12,-6 -6,6z"/>
  <path class="fil0" d="M1491 111c0,0 0,-6 0,-6 0,0 0,0 0,0 0,0 -12,-6 0,6z"/>
  <path class="fil0" d="M167 1040c0,0 6,0 6,0 0,0 0,0 0,0 0,0 -12,-13 -6,0z"/>
  <path class="fil0" d="M1491 1089c0,0 0,0 0,0 0,0 0,0 0,0 0,0 -12,-6 0,0z"/>
  <path class="fil0" d="M501 1244c0,0 0,-6 0,0 0,0 0,-6 0,-6 0,0 -12,-7 0,6z"/>
  <path class="fil0" d="M347 1170c0,0 0,-7 0,-7 0,0 6,0 6,0 0,0 -19,-6 -6,7z"/>
  <path class="fil0" d="M1541 1850c0,6 0,0 0,0 0,0 0,0 0,0 0,0 -13,-6 0,0z"/>
  <path class="fil0" d="M1238 2104c0,6 0,0 0,0 0,0 0,0 0,0 0,0 -13,-6 0,0z"/>
  <path class="fil0" d="M1999 297c0,0 0,-6 0,-6 0,6 0,0 0,0 0,0 -13,-6 0,6z"/>
  <path class="fil0" d="M2203 1176c0,0 0,-6 0,0 0,0 0,-6 0,-6 0,6 -12,-7 0,6z"/>
  <path class="fil0" d="M743 736c0,0 6,-6 6,0 0,0 0,-6 0,-6 0,0 -13,-6 -6,6z"/>
  <path class="fil0" d="M2265 891c6,0 6,-6 6,-6 0,0 0,0 0,0 0,0 -12,-6 -6,6z"/>
  <path class="fil0" d="M136 736c0,0 0,-6 0,0 0,0 0,-6 0,-6 0,0 -12,-6 0,6z"/>
  <path class="fil0" d="M1405 179c0,0 0,-6 0,-6 0,0 6,0 6,0 0,0 -19,-6 -6,6z"/>
  <path class="fil0" d="M2420 74c0,0 0,0 0,0 0,0 6,0 6,0 0,0 -19,-12 -6,0z"/>
  <path class="fil0" d="M1380 99c0,6 0,0 0,0 0,0 0,0 0,0 0,0 -12,-6 0,0z"/>
  <path class="fil0" d="M1083 1213c0,0 0,-6 0,-6 0,0 6,0 6,0 0,0 -18,-7 -6,6z"/>
  <path class="fil0" d="M421 699c6,6 6,0 6,0 0,0 0,0 0,0 0,0 -12,-6 -6,0z"/>
  <path class="fil0" d="M1064 1293c0,0 7,0 7,0 0,0 0,0 0,0 0,0 -19,-12 -7,0z"/>
  <path class="fil0" d="M916 260c0,6 0,0 0,0 0,0 0,0 0,0 0,0 -13,-6 0,0z"/>
  <path class="fil0" d="M879 192c0,6 6,0 6,0 0,0 0,0 0,0 0,0 -19,-6 -6,0z"/>
  <path class="fil0" d="M204 1275c0,6 0,0 0,0 0,0 0,0 0,0 0,0 -12,-6 0,0z"/>
  <path class="fil0" d="M1170 755c0,0 0,-6 0,-6 0,0 0,0 0,0 0,0 -13,-6 0,6z"/>
  <path class="fil0" d="M860 1262c6,0 6,-6 6,-6 0,0 0,0 0,0 0,0 -12,-6 -6,6z"/>
  <path class="fil0" d="M507 501c0,0 0,-6 0,-6 0,0 7,0 7,0 0,0 -19,-6 -7,6z"/>
  <path class="fil0" d="M1559 1683c0,0 0,0 0,0 0,0 0,0 0,0 0,0 -12,-12 0,0z"/>
  <path class="fil0" d="M446 1894c6,0 6,0 6,0 0,0 0,0 0,0 0,0 -13,-13 -6,0z"/>
  <path class="fil0" d="M879 179c0,0 6,-6 6,-6 0,0 0,0 0,0 0,0 -19,-6 -6,6z"/>
  <path class="fil0" d="M879 532c0,0 6,0 6,0 0,0 0,0 0,0 0,0 -19,-12 -6,0z"/>
  <path class="fil0" d="M99 2122c6,0 6,0 6,0 0,0 0,0 0,0 0,0 -12,-12 -6,0z"/>
  <path class="fil0" d="M860 532c6,0 6,0 6,0 0,0 0,0 0,0 0,0 -12,-12 -6,0z"/>
  <path class="fil0" d="M835 712c7,0 7,-7 7,-7 0,7 0,0 0,0 0,0 -13,-6 -7,7z"/>
  <path class="fil1" d="M3224 1467l0 -7c0,-18 0,0 0,7z"/>
  <path class="fil1" d="M3094 1863c6,0 6,-7 6,-7l0 0c0,0 -6,7 -6,7z"/>
  <path class="fil1" d="M3434 1943l7 0c0,0 -7,0 -7,0z"/>
  <path class="fil1" d="M1844 2098l0 0c0,0 0,0 0,0z"/>
  <path class="fil0" d="M3267 1089l0 0c0,0 0,0 0,0z"/>
  <path class="fil0" d="M3162 1089l6 0c0,0 -6,0 -6,0z"/>
  <path class="fil0" d="M2351 1089l7 0c-7,0 -7,0 -7,0z"/>
  <path class="fil0" d="M3521 637l0 -6c0,0 0,0 0,6z"/>
  <path class="fil0" d="M2457 767l0 0c0,0 -7,0 0,0z"/>
  <path class="fil0" d="M2556 2172l0 0c0,0 0,0 0,0z"/>
  <path class="fil0" d="M3366 2160l6 -7c0,0 -6,7 -6,7z"/>
  <path class="fil0" d="M3750 1405l0 0c0,0 0,0 0,0z"/>
  <path class="fil0" d="M2605 668l6 0c0,0 -6,0 -6,0z"/>
  <path class="fil0" d="M2556 1244l0 0c0,0 0,0 0,0z"/>
  <path class="fil0" d="M2506 1058l0 0c0,0 0,0 0,0z"/>
  <path class="fil0" d="M2964 1058l0 0c0,0 -6,0 0,0z"/>
  <path class="fil0" d="M2079 1906l6 -6c0,0 -6,0 -6,6z"/>
  <path class="fil0" d="M2741 1850l0 0c0,0 0,0 0,0z"/>
  <path class="fil0" d="M3174 204l0 -6c0,0 0,6 0,6z"/>
  <path class="fil0" d="M3459 1627l6 -6c0,0 -6,0 -6,6z"/>
  <path class="fil0" d="M3552 1293l6 0c0,0 -6,0 -6,0z"/>
  <path class="fil0" d="M3131 1702l0 -7c0,0 0,7 0,7z"/>
  <path class="fil0" d="M3738 1751l6 0c0,0 -6,0 -6,0z"/>
  <path class="fil0" d="M2370 1126l0 -6c0,0 0,6 0,6z"/>
  <path class="fil0" d="M2519 1918l6 0c0,0 -6,0 -6,0z"/>
  <path class="fil0" d="M2624 1906l0 -6c0,0 0,0 0,6z"/>
  <path class="fil0" d="M3298 1398l6 -6c0,0 -6,0 -6,6z"/>
  <path class="fil0" d="M3632 1219l0 -6c0,6 -6,6 0,6z"/>
  <path class="fil0" d="M3434 1213l7 -6c0,0 -7,0 -7,6z"/>
  <path class="fil0" d="M2927 1058l6 0c-6,0 -6,0 -6,0z"/>
  <path class="fil0" d="M2574 699l0 0c0,0 0,0 0,0z"/>
  <path class="fil0" d="M2370 1108l0 0c0,0 0,0 0,0z"/>
  <path class="fil0" d="M2673 854l0 0c0,0 0,0 0,0z"/>
  <path class="fil0" d="M3218 347l0 0c0,0 -6,0 0,0z"/>
  <path class="fil0" d="M2908 1528l7 0c0,0 -7,0 -7,0z"/>
  <path class="fil0" d="M2698 1844l6 0c0,0 -6,0 -6,0z"/>
  <path class="fil0" d="M2976 1782l7 0c0,0 -7,0 -7,0z"/>
  <path class="fil1" d="M2859 712l0 0c18,-19 6,6 6,0 -6,-25 -6,0 -6,0z"/>
  <path class="fil0" d="M3020 1318c-25,25 24,-25 0,0z"/>
  <path class="fil0" d="M1838 1813c-25,19 25,-25 0,0z"/>
  <path class="fil0" d="M1906 235c-25,25 18,-18 0,0z"/>
  <path class="fil0" d="M2809 1479c-24,25 25,-25 0,0z"/>
  <path class="fil0" d="M755 1151c-25,25 25,-25 0,0z"/>
  <path class="fil0" d="M272 1850c-24,25 25,-18 0,0z"/>
  <path class="fil0" d="M984 1244c-25,25 18,-25 0,0z"/>
  <path class="fil0" d="M1757 1782c-18,25 25,-18 0,0z"/>
  <path class="fil0" d="M1182 1089c-19,25 25,-18 0,0z"/>
  <polygon class="fil0" points="0,1541 0,1547 "/>
  <path class="fil0" d="M99 1021c-19,25 25,-19 0,0z"/>
  <polygon class="fil0" points="0,897 0,903 "/>
  <polygon class="fil0" points="792,885 823,866 "/>
  <path class="fil0" d="M1986 87c-24,24 25,-25 0,0z"/>
  <path class="fil0" d="M2079 1986c-18,25 25,-18 0,0z"/>
  <path class="fil0" d="M532 1436c-25,24 25,-19 0,0z"/>
 </g>
</svg>
